
<svg class="icon" style="width: auto;height: auto;vertical-align: middle;fill: currentColor;overflow: hidden;" viewBox="0 0 1024 1024" version="1.1" xmlns="http://www.w3.org/2000/svg" p-id="559"><path d="M743.5 620.1c0 153.2-89.5 187.1-200 187.1s-200-33.9-200-187.1c0-114 51.8-260.2 121.1-335.8 14.4-15.7 28.8-27.6 42.7-34.6 9.2-4.6 25.1-32.9 42.7-32.9s30.5 27.6 38 30.9c14 6.2 28.3 17.9 42.5 33.6 66.6 74.2 113 223.3 113 338.8z" fill="#EF8833" p-id="560"></path><path d="M417.6 752c-2.2 0-4.5-1.1-6.2-3.2-3.4-4.3-3.4-11.2 0-15.4 0 0 14-20.1 6.3-77.8-9.2-68.9 26-135.9 27.5-138.8 2.7-5 8.1-6.4 12.1-3 4 3.3 5.1 10.1 2.4 15.1-0.3 0.6-32.9 62.8-24.8 123.1 9.2 69-9.1 94.1-11.2 96.8-1.6 2.1-3.8 3.2-6.1 3.2zM685.2 752c-2.2 0-4.4-1-6.1-3.1-2.1-2.6-20.4-27.8-11.2-96.8 8.1-60.5-24.5-122.4-24.8-123.1-2.7-5-1.6-11.8 2.4-15.1 4-3.4 9.4-2 12.1 3 1.5 2.8 36.7 69.8 27.5 138.8-7.7 57.7 6.3 77.8 6.4 78 3.2 4.4 3.1 11.2-0.4 15.3-1.6 1.9-3.8 3-5.9 3zM534 752c-2.2 0-4.5-1.1-6.2-3.4-3.4-4.5-3.4-11.9 0-16.5 15-20.1 22.5-108.3 15.8-126.2-9.5-25.4-2.3-87.9-0.8-100.2 0.8-6.3 5.3-10.6 10-9.6 4.8 1.1 8 7.1 7.2 13.4-3.2 25.6-6.2 71.5-0.8 86 10.7 28.6 0.9 126.4-19.1 153.1-1.6 2.3-3.9 3.4-6.1 3.4z" fill="#A84C0E" p-id="561"></path><path d="M495.5 823.2c-92.7 0-216-21-216-203.1 0-119.6 53.9-268.6 125.3-346.6 16.1-17.6 32-30.4 47.2-38.1 0.9-0.7 4.5-4.7 7.2-7.7 10.2-11.4 24.2-27 42.7-27 19.2 0 32.2 16.2 40.9 27 1.9 2.3 3.5 4.5 4.9 5.9 15.2 7.1 30.9 19.5 46.6 37 66.8 74.3 117.1 224.6 117.1 349.5 0.1 182.1-123.2 203.1-215.9 203.1z m6.5-590.4c-4.3 0-14.9 11.9-18.9 16.3-5.7 6.4-10.7 11.9-16.6 14.9-11.8 6-24.6 16.5-38.1 31.2-65.6 71.5-116.9 214.3-116.9 324.9 0 119.9 55 171.1 184 171.1s184-51.2 184-171.1c0-116-47.8-260.2-108.9-328.1-13.1-14.6-25.6-24.6-37.1-29.7-6.1-2.7-10.3-7.9-15.6-14.5-3.3-4.1-12.1-15-15.9-15z m46.2 1.3z m-1.7-1.1z" p-id="562"></path><path d="M429.4 429.4m-21.2 0a21.2 21.2 0 1 0 42.4 0 21.2 21.2 0 1 0-42.4 0Z" p-id="563"></path><path d="M535.4 429.1m-21.2 0a21.2 21.2 0 1 0 42.4 0 21.2 21.2 0 1 0-42.4 0Z" p-id="564"></path></svg> 